<?xml version="1.0" encoding="UTF-8"?>
<svg id="Layer_2" data-name="Layer 2" xmlns="http://www.w3.org/2000/svg" viewBox="0 0 416.64 90.97">
  <defs>
    <style>
      .cls-1 {
        fill: #40b871;
      }
    </style>
  </defs>
  <g id="Layer_1-2" data-name="Layer 1">
    <g>
      <path class="cls-1" d="M90.81,49.18c.1-1.22.16-2.45.16-3.69,0-.35,0-.7-.02-1.05v-.26s0,0,0,0C90.26,19.7,70.13,0,45.48,0S.74,19.67.02,44.12c-.02.45-.02.91-.02,1.36,0,1.33.06,2.64.17,3.95,2.01,23.23,21.56,41.53,45.31,41.53s43.28-18.27,45.31-41.47c0,0,0,0,0,0h.01s0-.31,0-.31ZM45.48,4.46c22.19,0,40.33,17.71,41,39.75l-6.2.03c-.45,0-.79-.11-1.14-.67l-.75-2.26c-.8-2.4-2.38-4.14-4.44-4.91-.74-.28-1.51-.41-2.29-.41-2.12,0-4.2,1.04-5.49,2.74-.08.11-.15.2-.22.3-.94,1.38-1.62,2.79-2.08,4.31l-.74,2.4-1.9,8.47c-.18.75-.48,1.43-.87,1.95-.32.42-.52.52-.58.54-.2.12-.4.15-.59.15-.21,0-.48-.02-.71-.16-.11-.07-.24-.23-.48-.54-.4-.52-.71-1.23-.88-1.95l-.45-1.97v-.04s-1.94-8.6-1.94-8.6l-.29-1.23-.15-.62-.58-2.42-.15-.61h0c-.32-1.33-.66-2.68-1.06-4.04-.81-2.64-2.03-4.26-3.95-5.26-.88-.47-1.83-.71-2.93-.78h-.06s-.06,0-.06,0c-1.05.04-2.05.3-2.95.76-.24.12-.91.49-1.62,1.17-1.04.98-1.79,2.34-2.34,4.12-.41,1.35-.75,2.69-1.06,4.02l-.15.61-.58,2.42-.15.62-.29,1.25-1.72,7.69-.22.93h0l-.44,1.96c-.18.75-.48,1.43-.87,1.95-.32.42-.52.52-.58.54-.2.12-.4.15-.59.15-.21,0-.48-.02-.71-.16-.11-.07-.24-.23-.48-.54-.4-.52-.71-1.23-.88-1.95l-2.64-10.88c-.45-1.52-1.14-2.94-2.08-4.31-.06-.1-.14-.19-.22-.3-1.29-1.7-3.37-2.74-5.49-2.74-.78,0-1.55.14-2.29.41-2.05.78-3.63,2.51-4.44,4.91l-.75,2.26c-.34.56-.69.67-1.14.67l-6.37-.07h-.01C5.18,22.15,23.3,4.46,45.48,4.46ZM45.48,86.51c-21.27,0-38.81-16.27-40.82-37.02,0,0,0,0,0,0h.01l6.13.07c2.6,0,4.67-1.22,5.83-3.44.38-.74.62-1.48.86-2.19.36-1.08.67-2.01,1.33-2.45.19-.12.41-.19.65-.19.49,0,.98.25,1.3.67.54.75.97,1.62,1.3,2.7l.75,2.59c.18.76.34,1.51.51,2.25.49,2.21.99,4.49,1.68,6.76.54,1.78,1.3,3.13,2.34,4.11.71.68,1.38,1.05,1.62,1.17.9.47,1.9.73,2.95.77h.06s.06,0,.06,0c1.09-.06,2.05-.32,2.93-.78,1.92-1,3.14-2.63,3.95-5.26.41-1.35.75-2.7,1.05-4.04l.15-.61.58-2.42.15-.62.29-1.23,1.64-7.27.06-.24.26-1.13h0l.44-1.96c.16-.71.48-1.43.88-1.95.24-.3.36-.45.48-.53.24-.14.5-.16.71-.16.19,0,.39.03.59.15.06.03.26.13.58.54.39.54.69,1.2.87,1.96l2.37,10.58.29,1.24.15.62.58,2.42.15.61h.02c.32,1.34.66,2.68,1.06,4.03.54,1.78,1.3,3.13,2.34,4.11.71.68,1.38,1.05,1.62,1.17.9.47,1.9.73,2.95.77h.06s.06,0,.06,0c1.09-.06,2.05-.32,2.93-.78,1.92-1,3.14-2.63,3.95-5.26.66-2.18,1.14-4.38,1.61-6.49.19-.84.37-1.68.58-2.54l.2-.88h0l.54-1.71c.33-1.08.75-1.95,1.3-2.7.32-.42.81-.67,1.3-.67.24,0,.45.06.65.19.66.44.97,1.37,1.33,2.45.24.71.48,1.45.86,2.19,1.16,2.22,3.24,3.44,5.83,3.44l5.97-.03s0,0,0,0c-2.04,20.73-19.57,36.98-40.83,36.98Z"/>
      <g>
        <path class="cls-1" d="M120.36,59.28l5.24-19.87c.53-2.01.96-4.08,1.28-6.22.11-.75.24-1.52.37-2.3.14.84.28,1.68.42,2.48.36,2.17.78,4.18,1.27,6.04l5.24,19.87h7.39l9.73-35.97h-6.95l-4.66,19.14c-.32,1.38-.63,2.84-.92,4.37-.29,1.53-.57,3.07-.83,4.61-.09.5-.17.99-.26,1.48-.09-.49-.18-.98-.28-1.48-.28-1.55-.57-3.08-.87-4.61-.3-1.53-.62-2.99-.98-4.37l-4.85-19.14h-6.83l-4.88,19.14c-.34,1.38-.66,2.84-.97,4.37-.31,1.53-.6,3.07-.87,4.61-.09.52-.19,1.04-.28,1.56-.09-.52-.17-1.03-.26-1.56-.27-1.55-.54-3.08-.82-4.61-.28-1.53-.58-2.99-.91-4.37l-4.68-19.14h-6.93l9.7,35.97h7.39Z"/>
        <path class="cls-1" d="M158.25,58.12c1.96,1.14,4.29,1.71,7.01,1.71,2.01,0,3.8-.3,5.37-.91,1.57-.6,2.88-1.45,3.92-2.53,1.05-1.09,1.79-2.35,2.22-3.8l-5.77-1.18c-.27.76-.68,1.4-1.23,1.92-.55.52-1.19.92-1.94,1.18s-1.58.4-2.5.4c-1.38,0-2.6-.3-3.65-.89s-1.86-1.48-2.44-2.66c-.52-1.05-.79-2.33-.85-3.81h18.78v-1.98c0-2.37-.33-4.41-.98-6.12-.65-1.71-1.55-3.13-2.7-4.24-1.15-1.11-2.47-1.93-3.96-2.46-1.49-.53-3.05-.8-4.7-.8-2.58,0-4.82.59-6.72,1.77-1.91,1.18-3.38,2.82-4.42,4.91-1.04,2.09-1.56,4.53-1.56,7.31s.53,5.26,1.58,7.34c1.05,2.08,2.56,3.69,4.51,4.83ZM161.35,37.85c.97-.65,2.14-.98,3.52-.98s2.54.32,3.46.97c.93.64,1.62,1.54,2.09,2.69.33.82.54,1.74.64,2.74h-12.64c.08-1.01.32-1.95.72-2.81.51-1.09,1.24-1.95,2.21-2.61Z"/>
        <path class="cls-1" d="M185.69,28.48c1.01,0,1.88-.34,2.6-1.01.72-.68,1.07-1.49,1.07-2.44s-.36-1.76-1.07-2.43c-.72-.67-1.58-1-2.6-1s-1.85.33-2.57,1c-.72.67-1.07,1.48-1.07,2.45s.36,1.74,1.07,2.41c.72.68,1.57,1.01,2.57,1.01Z"/>
        <path class="cls-1" d="M184.55,68.45c1.4-.61,2.47-1.55,3.2-2.8.73-1.26,1.1-2.86,1.1-4.8v-28.56h-6.3v28.49c0,1.13-.26,1.98-.78,2.57-.52.59-1.4.88-2.62.88h-.92v5.14h1.28c1.96,0,3.65-.31,5.05-.92Z"/>
        <path class="cls-1" d="M199.75,58.13c1.68,1.09,3.59,1.63,5.71,1.63,1.56,0,2.85-.26,3.86-.78,1.01-.52,1.83-1.15,2.45-1.9.62-.74,1.09-1.43,1.41-2.08h.39v4.27h6.16V23.31h-6.28v13.45h-.27c-.31-.64-.76-1.34-1.36-2.08-.6-.74-1.42-1.38-2.44-1.92-1.02-.54-2.34-.81-3.95-.81-2.06,0-3.93.53-5.61,1.59-1.68,1.06-3.02,2.63-4.01,4.7s-1.48,4.6-1.48,7.59.48,5.48,1.45,7.56c.97,2.08,2.29,3.66,3.97,4.74ZM201.47,41.33c.48-1.31,1.2-2.34,2.15-3.09s2.13-1.12,3.55-1.12,2.53.36,3.49,1.09c.96.72,1.68,1.73,2.17,3.03.49,1.3.74,2.82.74,4.57s-.25,3.29-.75,4.61c-.5,1.32-1.22,2.35-2.17,3.08-.95.73-2.11,1.1-3.48,1.1s-2.58-.38-3.54-1.15c-.96-.76-1.68-1.81-2.16-3.14-.48-1.33-.72-2.83-.72-4.5s.24-3.17.72-4.48Z"/>
        <path class="cls-1" d="M231.28,58.12c1.96,1.14,4.29,1.71,7.01,1.71,2.01,0,3.8-.3,5.37-.91s2.88-1.45,3.92-2.53c1.05-1.09,1.79-2.35,2.22-3.8l-5.77-1.18c-.27.76-.68,1.4-1.23,1.92-.55.52-1.2.92-1.94,1.18s-1.58.4-2.5.4c-1.38,0-2.6-.3-3.64-.89-1.05-.6-1.86-1.48-2.44-2.66-.52-1.05-.79-2.33-.85-3.81h18.78v-1.98c0-2.37-.33-4.41-.98-6.12-.65-1.71-1.55-3.13-2.7-4.24-1.15-1.11-2.47-1.93-3.96-2.46s-3.05-.8-4.7-.8c-2.58,0-4.82.59-6.72,1.77-1.91,1.18-3.38,2.82-4.42,4.91-1.04,2.09-1.56,4.53-1.56,7.31s.53,5.26,1.58,7.34c1.05,2.08,2.56,3.69,4.51,4.83ZM234.38,37.85c.97-.65,2.14-.98,3.52-.98s2.54.32,3.46.97c.93.64,1.62,1.54,2.09,2.69.33.82.54,1.74.64,2.74h-12.64c.08-1.01.32-1.95.72-2.81.51-1.09,1.24-1.95,2.21-2.61Z"/>
        <path class="cls-1" d="M274.81,33.14c-1.38-.79-3-1.18-4.85-1.18-2.21,0-4.04.58-5.5,1.75-1.18.94-2.12,2.26-2.84,3.96l-.08-5.37h-5.94v26.99h6.28v-15.81c0-1.3.25-2.42.75-3.34.5-.92,1.18-1.63,2.05-2.11.87-.48,1.86-.72,2.97-.72,1.64,0,2.93.52,3.86,1.54.93,1.03,1.4,2.45,1.4,4.25v16.2h6.28v-17.16c0-2.17-.38-4.02-1.15-5.53-.76-1.51-1.84-2.66-3.22-3.45Z"/>
        <path class="cls-1" d="M321.54,42.15c-1.01-.81-2.14-1.48-3.39-2.02-1.26-.53-2.55-.96-3.89-1.28l-3.36-.87c-.97-.24-1.92-.56-2.86-.94-.94-.39-1.72-.9-2.34-1.55-.62-.64-.93-1.46-.93-2.46,0-.92.26-1.73.78-2.44.52-.71,1.27-1.27,2.25-1.68.97-.41,2.14-.62,3.49-.62,1.95,0,3.53.42,4.74,1.27,1.21.85,1.9,2.04,2.06,3.59h6.25c-.05-2-.62-3.77-1.7-5.33s-2.6-2.78-4.53-3.67c-1.93-.89-4.18-1.33-6.74-1.33s-4.76.44-6.74,1.32-3.54,2.11-4.68,3.71-1.71,3.45-1.71,5.58c0,2.54.84,4.6,2.52,6.16,1.68,1.56,4.03,2.73,7.04,3.5l4.08,1.06c1.3.32,2.44.7,3.42,1.12.97.43,1.73.95,2.27,1.56s.81,1.38.81,2.32c0,1.03-.31,1.94-.92,2.72-.61.78-1.46,1.39-2.55,1.82-1.09.43-2.34.65-3.75.65s-2.58-.21-3.69-.62c-1.11-.41-2-1.03-2.68-1.87s-1.07-1.88-1.18-3.14h-6.35c.1,2.37.72,4.38,1.88,6.03,1.16,1.66,2.76,2.92,4.82,3.79s4.47,1.3,7.25,1.3,5.31-.45,7.34-1.34c2.03-.89,3.58-2.14,4.66-3.74,1.08-1.6,1.62-3.46,1.62-5.56,0-1.56-.3-2.92-.89-4.08-.6-1.16-1.4-2.14-2.4-2.96Z"/>
        <path class="cls-1" d="M336.73,55.01h.27c.32.64.79,1.34,1.4,2.08.61.74,1.43,1.37,2.46,1.9,1.03.52,2.31.78,3.84.78,2.14,0,4.05-.54,5.73-1.63,1.68-1.09,3.01-2.67,3.97-4.74.97-2.08,1.45-4.59,1.45-7.56s-.49-5.52-1.48-7.59c-.99-2.07-2.32-3.63-3.99-4.7-1.67-1.06-3.56-1.59-5.65-1.59-1.59,0-2.9.27-3.92.81-1.02.54-1.83,1.18-2.43,1.92-.6.74-1.05,1.43-1.38,2.08h-.41v-4.47h-6.13v37.08h6.28v-14.36ZM337.35,41.23c.49-1.3,1.21-2.31,2.16-3.03.95-.72,2.12-1.09,3.5-1.09s2.6.37,3.55,1.12c.95.75,1.66,1.78,2.14,3.09.47,1.31.71,2.8.71,4.48s-.24,3.17-.72,4.5c-.48,1.33-1.2,2.37-2.15,3.14-.95.76-2.12,1.15-3.52,1.15s-2.53-.37-3.49-1.1-1.68-1.76-2.17-3.08-.74-2.86-.74-4.61.25-3.28.74-4.57Z"/>
        <rect class="cls-1" x="361.31" y="32.29" width="6.28" height="26.99"/>
        <path class="cls-1" d="M364.45,28.48c1.01,0,1.88-.34,2.6-1.01s1.07-1.49,1.07-2.44-.36-1.76-1.07-2.43-1.58-1-2.6-1-1.86.33-2.57,1-1.07,1.48-1.07,2.45.36,1.74,1.07,2.41,1.57,1.01,2.57,1.01Z"/>
        <path class="cls-1" d="M380.53,43.4c0-1.14.26-2.15.78-3.03.52-.88,1.25-1.57,2.17-2.06.92-.5,1.97-.75,3.13-.75.56,0,1.13.03,1.71.1.58.06,1,.14,1.26.22v-5.77c-.31-.05-.68-.09-1.11-.12s-.83-.05-1.18-.05c-1.55,0-2.92.42-4.13,1.27-1.21.84-2.05,2.05-2.53,3.61h-.29v-4.51h-6.08v26.99h6.28v-15.88Z"/>
        <path class="cls-1" d="M404.71,59.83c2.01,0,3.8-.3,5.37-.91s2.88-1.45,3.92-2.53c1.05-1.09,1.79-2.35,2.22-3.8l-5.77-1.18c-.27.76-.68,1.4-1.23,1.92-.55.52-1.2.92-1.94,1.18s-1.58.4-2.5.4c-1.38,0-2.6-.3-3.64-.89-1.05-.6-1.86-1.48-2.44-2.66-.52-1.05-.79-2.33-.85-3.81h18.78v-1.98c0-2.37-.33-4.41-.98-6.12-.65-1.71-1.55-3.13-2.7-4.24-1.15-1.11-2.47-1.93-3.96-2.46s-3.05-.8-4.7-.8c-2.58,0-4.82.59-6.72,1.77-1.91,1.18-3.38,2.82-4.42,4.91-1.04,2.09-1.56,4.53-1.56,7.31s.53,5.26,1.58,7.34c1.05,2.08,2.56,3.69,4.51,4.83s4.29,1.71,7.01,1.71ZM400.8,37.85c.97-.65,2.14-.98,3.52-.98s2.54.32,3.46.97c.93.64,1.62,1.54,2.09,2.69.33.82.54,1.74.64,2.74h-12.64c.08-1.01.32-1.95.72-2.81.51-1.09,1.24-1.95,2.21-2.61Z"/>
      </g>
    </g>
  </g>
</svg>