<?xml version="1.0" encoding="UTF-8"?>
<svg id="Layer_2" data-name="Layer 2" xmlns="http://www.w3.org/2000/svg" viewBox="0 0 55.18 55.05">
  <defs>
    <style>
      .cls-1 {
        fill: #09314e;
      }
    </style>
  </defs>
  <g id="Layer_1-2" data-name="Layer 1">
    <path class="cls-1" d="M.17,24.83c.74-5.33,3.91-8.6,4.91-9.56L15.21,5.14c6.85-6.85,17.96-6.85,24.8,0l9.31,9.3c-1.66-1.21-5.86-3.83-11.72-3.69-6.27.15-10.45,3.37-11.67,4.38l-3.53,3.6c-1.83,1.84-3.66,3.68-5.49,5.52-.94.94-.94,2.48,0,3.43l10.73,10.84c-1.29,1.09-3.69,2.82-7.09,3.61-6.47,1.51-14.71-.83-18.49-7.17C-.57,30.57,0,26.02.17,24.83Z"/>
    <path class="cls-1" d="M54.92,30.22c-.81,5.17-3.78,8.43-4.91,9.56l-10.13,10.13c-6.85,6.85-17.96,6.85-24.8,0l-9.31-9.3c1.66,1.21,5.86,3.83,11.72,3.69,6.27-.15,10.45-3.37,11.67-4.38l3.53-3.6c1.83-1.84,3.66-3.68,5.49-5.52.94-.94.94-2.48,0-3.43l-10.73-10.84c1.33-1.12,3.73-2.82,7.09-3.61,6.9-1.62,15.69,1.13,19.12,7.78,2.07,4,1.48,8.06,1.25,9.52Z"/>
  </g>
</svg>