<?xml version="1.0" encoding="UTF-8"?>
<svg id="Layer_2" data-name="Layer 2" xmlns="http://www.w3.org/2000/svg" viewBox="0 0 1172.63 402.45">
  <defs>
    <style>
      .cls-1 {
        fill: #121b32;
      }
    </style>
  </defs>
  <g id="Layer_1-2" data-name="Layer 1">
    <g>
      <g>
        <polygon class="cls-1" points="477.07 100.75 479.74 100.75 532.32 214.89 584.14 214.89 584.14 75.32 554.69 75.32 554.69 189.46 552.02 189.46 499.44 75.32 448.01 75.32 448.01 214.89 477.07 214.89 477.07 100.75"/>
        <path class="cls-1" d="M738.62,194.53c6.12-7.2,10.71-14.98,13.77-23.33,3.06-8.35,4.59-16.47,4.59-24.38v-4.21c0-8.67-1.6-17.24-4.78-25.72-3.19-8.47-7.9-16.16-14.15-23.04-6.25-6.88-14.02-12.39-23.33-16.54-9.31-4.14-20.08-6.21-32.31-6.21s-23.17,2.07-32.41,6.21c-9.24,4.14-17.02,9.66-23.33,16.54-6.31,6.88-11.03,14.56-14.15,23.04-3.12,8.48-4.68,17.05-4.68,25.72v4.21c0,7.9,1.53,16.03,4.59,24.38,3.06,8.35,7.65,16.13,13.77,23.33,6.12,7.2,13.86,13.03,23.23,17.49,9.37,4.46,20.36,6.69,32.98,6.69s23.61-2.23,32.98-6.69c9.37-4.46,17.11-10.29,23.23-17.49ZM722.27,162.12c-1.98,5.35-4.81,10.07-8.51,14.15-3.7,4.08-8.19,7.27-13.48,9.56-5.29,2.29-11.25,3.44-17.88,3.44s-12.56-1.15-17.78-3.44c-5.23-2.29-9.72-5.48-13.48-9.56-3.76-4.08-6.6-8.79-8.51-14.15-1.91-5.35-2.87-11.09-2.87-17.21,0-6.5.96-12.46,2.87-17.88,1.91-5.42,4.75-10.1,8.51-14.05,3.76-3.95,8.25-7.01,13.48-9.18,5.23-2.17,11.15-3.25,17.78-3.25s12.39,1.08,17.69,3.25c5.29,2.17,9.81,5.23,13.57,9.18,3.76,3.95,6.63,8.64,8.6,14.05,1.97,5.42,2.96,11.38,2.96,17.88,0,6.12-.99,11.85-2.96,17.21Z"/>
        <path class="cls-1" d="M834.75,170.15l30.63,44.74h36.33l-35.65-49.98c8.28-3.38,14.72-8.41,19.3-15.13,4.65-6.82,6.98-15.39,6.98-25.72v-3.06c0-10.32-2.29-18.96-6.88-25.91-4.59-6.95-11.15-12.17-19.69-15.68-8.54-3.5-18.61-5.26-30.21-5.26h-54.87v140.72h31.36v-44.74h22.71ZM838.04,100.75c4.59,0,8.54.93,11.85,2.77,3.31,1.85,5.93,4.46,7.84,7.84,1.91,3.38,2.87,7.36,2.87,11.95,0,4.33-.96,8.19-2.87,11.57-1.91,3.38-4.53,5.99-7.84,7.84-3.32,1.85-7.27,2.77-11.85,2.77h-26v-44.74h26Z"/>
        <polygon class="cls-1" points="1074.55 214.89 1074.55 75.32 1030.57 75.32 999.03 153.71 995.4 153.71 963.47 75.32 920.26 75.32 920.26 214.89 948.94 214.89 948.94 107.82 981.25 186.6 1011.07 186.6 1043.58 106.94 1043.58 214.89 1074.55 214.89"/>
        <path class="cls-1" d="M529.07,321.29c-7.78-3.5-16.76-5.7-26.96-6.6l-10.71-.96c-6.38-.51-10.96-2.23-13.77-5.16-2.81-2.93-4.21-6.31-4.21-10.13,0-3.18.76-6.09,2.29-8.7,1.53-2.61,3.85-4.65,6.98-6.12,3.12-1.46,6.98-2.2,11.57-2.2,4.84,0,8.89.86,12.14,2.58,3.25,1.72,5.7,4.01,7.36,6.88,1.66,2.87,2.49,6.02,2.49,9.46h30.59c0-9.05-2.1-16.98-6.31-23.8-4.21-6.82-10.23-12.14-18.07-15.96-7.84-3.82-17.24-5.74-28.2-5.74s-19.5,1.75-27.15,5.26c-7.65,3.51-13.61,8.51-17.88,15.01-4.27,6.5-6.41,14.28-6.41,23.33,0,12.37,4.14,22.27,12.43,29.73,8.28,7.46,19.37,11.82,33.27,13.1l10.52.76c8.54.77,14.72,2.46,18.55,5.07,3.82,2.61,5.74,6.15,5.74,10.61,0,3.57-1.02,6.72-3.06,9.46-2.04,2.74-5.04,4.88-8.99,6.4-3.95,1.53-8.86,2.29-14.72,2.29-6.5,0-11.79-.92-15.87-2.77-4.08-1.85-7.11-4.3-9.08-7.36-1.98-3.06-2.96-6.37-2.96-9.94h-30.59c0,9.05,2.26,17.05,6.79,23.99,4.52,6.95,11.12,12.46,19.79,16.54,8.67,4.08,19.31,6.12,31.93,6.12,11.85,0,22.05-1.85,30.59-5.55,8.54-3.7,15.13-8.92,19.79-15.68,4.65-6.75,6.98-14.59,6.98-23.52s-2.2-16.03-6.6-22.08c-4.4-6.05-10.49-10.83-18.26-14.34Z"/>
        <path class="cls-1" d="M607.46,259.05l-46.08,139.57h31.36l11.07-34.61h58.27l11.35,34.61h32.5l-47.8-139.57h-50.67ZM612.12,338.02l17-53.15h7l17.43,53.15h-41.43Z"/>
        <polygon class="cls-1" points="751.62 259.05 724.09 259.05 724.09 398.62 755.45 398.62 755.45 342.59 805.54 342.41 805.54 316.41 755.45 316.41 755.45 285.05 807.83 285.05 807.83 259.05 755.45 259.05 751.62 259.05"/>
        <polygon class="cls-1" points="861.75 340.69 914.52 340.69 914.52 314.69 861.75 314.69 861.75 285.05 917.58 285.05 917.58 259.05 861.75 259.05 857.93 259.05 831.16 259.05 831.16 398.62 857.93 398.62 861.75 398.62 918.92 398.62 918.92 372.62 861.75 372.62 861.75 340.69"/>
        <polygon class="cls-1" points="933.07 286.58 972.45 286.58 972.45 398.62 1003.81 398.62 1003.81 286.58 1043.19 286.58 1043.19 259.05 933.07 259.05 933.07 286.58"/>
        <polygon class="cls-1" points="1172.63 259.05 1142.23 259.05 1116.55 322.15 1110.48 322.15 1082.01 259.05 1049.89 259.05 1090.61 345.85 1097.49 345.85 1097.49 398.62 1128.28 398.62 1128.28 345.85 1135.16 345.85 1172.63 259.05"/>
      </g>
      <path class="cls-1" d="M397.64,74.05V0h-74.05v32.45H74.05V0H0v74.05h32.58v250.6H0v74.05h74.05v-32.57h249.53v32.57h74.05v-74.05h-32.47V74.05h32.47ZM323.59,41.35v26.53l-39.71,39.85h-36.45v129.09l-32.97-32.96v-31.95l-.34-.34-52.36-52.35-9.91-9.91-1.61-1.58h-36.47l-39.71-39.84v-26.53h249.53ZM41.48,74.05h26.17l39.59,39.72v171.17l-39.58,39.71h-26.18V74.05ZM74.05,357.25v-26.41l39.7-39.84h36.47v-128.71l33.32,33.33v31.54l62.27,62.26,1.61,1.58h36.44l39.72,39.85v26.4H74.05ZM356.27,324.66h-26.28l-39.58-39.71V113.76l39.57-39.7h26.29v250.6Z"/>
    </g>
  </g>
</svg>