<?xml version="1.0" encoding="UTF-8"?>
<svg id="Layer_2" data-name="Layer 2" xmlns="http://www.w3.org/2000/svg" viewBox="0 0 1237.25 684.91">
  <defs>
    <style>
      .cls-1 {
        fill: #121b32;
      }
    </style>
  </defs>
  <g id="Layer_1-2" data-name="Layer 1">
    <path class="cls-1" d="M826.12,79.95V0h-79.95v35.03h-269.41V0h-79.95v79.95h35.17v270.57h-35.17v79.95h79.95v-35.16h269.41v35.16h79.95v-79.95h-35.06V79.95h35.06ZM746.17,44.64v28.64l-42.87,43.02h-39.35v139.37l-35.6-35.59v-34.49l-.37-.37-56.53-56.52-10.7-10.7-1.74-1.71h-39.38l-42.87-43.02v-28.64h269.41ZM441.59,79.95h28.25l42.74,42.88v184.81l-42.74,42.88h-28.26V79.95ZM476.76,385.7v-28.52l42.86-43.01h39.37v-138.96l35.97,35.98v34.05l67.23,67.22,1.74,1.71h39.34l42.88,43.03v28.5h-269.41ZM781.45,350.52h-28.38l-42.73-42.87V122.82l42.73-42.87h28.38v270.57Z"/>
    <g>
      <path class="cls-1" d="M0,641.15v-147.2h54.24l55.45,120.38h6.86l-4.03,3.63v-124.01h31.05v147.2h-54.64l-55.45-120.38h-6.86l4.03-3.63v124.01H0Z"/>
      <path class="cls-1" d="M228.66,645.18c-9.68,0-18.28-1.51-25.81-4.54-7.53-3.02-13.91-7.19-19.16-12.5-5.24-5.31-9.21-11.36-11.9-18.15-2.69-6.79-4.03-13.94-4.03-21.47v-4.64c0-7.66,1.41-14.95,4.23-21.88,2.82-6.92,6.89-13.01,12.2-18.25,5.31-5.24,11.73-9.38,19.26-12.4,7.53-3.02,15.93-4.54,25.21-4.54s18.05,1.51,25.51,4.54c7.46,3.02,13.81,7.16,19.05,12.4,5.24,5.24,9.28,11.33,12.1,18.25,2.82,6.92,4.23,14.22,4.23,21.88v4.64c0,7.53-1.35,14.69-4.03,21.47-2.69,6.79-6.62,12.84-11.79,18.15-5.18,5.31-11.53,9.48-19.05,12.5-7.53,3.02-16.2,4.54-26.01,4.54ZM228.66,617.76c6.32,0,11.56-1.34,15.73-4.03,4.17-2.69,7.33-6.45,9.48-11.29,2.15-4.84,3.23-10.21,3.23-16.13,0-6.32-1.11-11.86-3.33-16.64-2.22-4.77-5.44-8.53-9.68-11.29-4.23-2.75-9.38-4.13-15.43-4.13s-11.02,1.38-15.32,4.13c-4.3,2.76-7.56,6.52-9.78,11.29-2.22,4.77-3.33,10.32-3.33,16.64,0,5.92,1.07,11.29,3.23,16.13,2.15,4.84,5.38,8.6,9.68,11.29,4.3,2.69,9.48,4.03,15.53,4.03Z"/>
      <path class="cls-1" d="M311.93,641.15v-110.5h25.81v47.59h-.6c0-15.73,3.33-27.83,9.98-36.29,6.65-8.47,16.3-12.7,28.94-12.7h4.23v28.03h-8.07c-8.87,0-15.73,2.35-20.57,7.06-4.84,4.71-7.26,11.56-7.26,20.57v56.26h-32.46Z"/>
      <path class="cls-1" d="M396.82,641.15v-110.5h25.81v47.59h-1.81c0-11.29,1.41-20.7,4.23-28.23,2.82-7.53,7.06-13.21,12.7-17.04,5.65-3.83,12.57-5.75,20.77-5.75h1.41c8.33,0,15.29,1.92,20.87,5.75,5.58,3.83,9.81,9.51,12.7,17.04,2.89,7.53,4.33,16.94,4.33,28.23h-7.86c0-11.29,1.44-20.7,4.33-28.23,2.89-7.53,7.16-13.21,12.8-17.04,5.65-3.83,12.57-5.75,20.77-5.75h1.41c8.33,0,15.36,1.92,21.07,5.75,5.71,3.83,10.05,9.51,13.01,17.04,2.96,7.53,4.44,16.94,4.44,28.23v62.91h-32.46v-64.73c0-5.91-1.55-10.75-4.64-14.52-3.09-3.76-7.53-5.65-13.31-5.65s-10.35,1.92-13.71,5.75c-3.36,3.83-5.04,8.84-5.04,15.02v64.12h-32.46v-64.73c0-5.91-1.58-10.75-4.74-14.52-3.16-3.76-7.56-5.65-13.21-5.65s-10.55,1.92-13.91,5.75c-3.36,3.83-5.04,8.84-5.04,15.02v64.12h-32.46Z"/>
      <path class="cls-1" d="M648.26,645.18c-13.31,0-24.53-2.15-33.67-6.45-9.14-4.3-16.1-10.11-20.87-17.44-4.77-7.33-7.16-15.76-7.16-25.31h32.26c0,3.77,1.04,7.26,3.12,10.49,2.08,3.23,5.27,5.82,9.58,7.76,4.3,1.95,9.88,2.92,16.74,2.92,6.18,0,11.36-.81,15.53-2.42,4.17-1.61,7.33-3.86,9.48-6.75,2.15-2.89,3.23-6.22,3.23-9.98,0-4.7-2.02-8.43-6.05-11.19-4.03-2.75-10.55-4.54-19.56-5.34l-11.09-.81c-14.65-1.34-26.35-5.95-35.08-13.81-8.74-7.86-13.11-18.31-13.11-31.35,0-9.54,2.25-17.74,6.75-24.6,4.5-6.86,10.79-12.13,18.85-15.83,8.07-3.7,17.61-5.54,28.63-5.54s21.47,2.02,29.74,6.05c8.27,4.03,14.62,9.65,19.05,16.84,4.44,7.19,6.65,15.56,6.65,25.1h-32.26c0-3.63-.88-6.96-2.62-9.98-1.75-3.02-4.33-5.44-7.76-7.26-3.43-1.81-7.7-2.72-12.8-2.72-4.84,0-8.91.77-12.2,2.32-3.3,1.55-5.75,3.7-7.36,6.45-1.61,2.76-2.42,5.82-2.42,9.17,0,4.03,1.48,7.6,4.44,10.69,2.96,3.09,7.79,4.91,14.52,5.44l11.29,1.01c10.75.94,20.23,3.26,28.43,6.96,8.2,3.7,14.62,8.74,19.26,15.12,4.64,6.39,6.96,14.15,6.96,23.29s-2.45,17.68-7.36,24.8c-4.91,7.13-11.87,12.64-20.87,16.53-9.01,3.9-19.76,5.85-32.26,5.85Z"/>
      <path class="cls-1" d="M760.98,643.97c-7.93,0-14.89-1.41-20.87-4.23-5.98-2.82-10.66-6.89-14.01-12.2-3.36-5.31-5.04-11.66-5.04-19.05,0-8.07,2.08-14.69,6.25-19.86,4.17-5.17,10.01-9,17.54-11.49,7.53-2.49,16.2-3.73,26.01-3.73h23.59v17.95h-23.79c-5.65,0-9.98,1.38-13.01,4.13-3.02,2.76-4.54,6.49-4.54,11.19,0,4.44,1.51,8.03,4.54,10.79,3.02,2.76,7.36,4.13,13.01,4.13,3.63,0,6.89-.64,9.78-1.92,2.89-1.28,5.27-3.46,7.16-6.55,1.88-3.09,2.96-7.39,3.23-12.9l7.66,8.07c-.67,7.66-2.52,14.11-5.54,19.36s-7.19,9.28-12.5,12.1c-5.31,2.82-11.8,4.23-19.46,4.23ZM796.27,641.15v-32.67h-5.44v-35.29c0-5.78-1.35-10.05-4.03-12.8-2.69-2.75-6.99-4.13-12.9-4.13-2.96,0-6.86.07-11.7.2-4.84.14-9.85.3-15.02.5-5.18.2-9.85.44-14.01.71v-27.22c3.23-.27,6.92-.54,11.09-.81,4.17-.27,8.47-.47,12.9-.6,4.44-.13,8.6-.2,12.5-.2,11.29,0,20.8,1.61,28.53,4.84,7.73,3.23,13.61,8.1,17.64,14.62,4.03,6.52,6.05,14.89,6.05,25.1v67.75h-25.61Z"/>
      <path class="cls-1" d="M838.61,556.46v-23.59h71.78v23.59h-71.78ZM851.72,641.15v-111.51c0-12.77,3.59-22.25,10.79-28.43,7.19-6.18,17.91-9.27,32.16-9.27h14.11v24.4h-15.53c-3.63,0-6.45.98-8.47,2.92-2.02,1.95-3.02,4.74-3.02,8.37v113.52h-30.04Z"/>
      <path class="cls-1" d="M976.53,645.18c-9.41,0-17.71-1.61-24.9-4.84-7.19-3.23-13.21-7.59-18.05-13.11-4.84-5.51-8.5-11.66-10.99-18.45-2.49-6.79-3.73-13.74-3.73-20.87v-4.03c0-7.39,1.24-14.48,3.73-21.27,2.49-6.79,6.12-12.87,10.89-18.25,4.77-5.37,10.69-9.64,17.74-12.8,7.06-3.16,15.09-4.74,24.1-4.74,11.83,0,21.81,2.66,29.94,7.96,8.13,5.31,14.35,12.23,18.65,20.77,4.3,8.54,6.45,17.85,6.45,27.93v10.89h-97.79v-18.35h78.23l-10.69,8.67c0-6.72-.91-12.4-2.72-17.04-1.82-4.64-4.57-8.2-8.27-10.69-3.7-2.49-8.3-3.73-13.81-3.73s-10.42,1.24-14.32,3.73c-3.9,2.49-6.86,6.18-8.87,11.09-2.02,4.91-3.02,10.92-3.02,18.05,0,6.59.94,12.33,2.82,17.24,1.88,4.91,4.84,8.71,8.87,11.39,4.03,2.69,9.28,4.03,15.73,4.03,5.91,0,10.75-1.14,14.52-3.43,3.76-2.28,6.32-5.11,7.66-8.47h29.64c-1.61,7.39-4.77,13.98-9.48,19.76-4.71,5.78-10.62,10.32-17.74,13.61-7.13,3.29-15.33,4.94-24.6,4.94Z"/>
      <path class="cls-1" d="M1038.23,554.45v-23.79h79.24v23.79h-79.24ZM1101.95,642.77c-11.16,0-20.16-1.41-27.02-4.23-6.86-2.82-11.9-7.49-15.12-14.01-3.23-6.52-4.84-15.36-4.84-26.52l.2-97.19h30.04v98.4c0,5.24,1.38,9.24,4.13,12,2.75,2.76,6.69,4.13,11.8,4.13h16.33v27.42h-15.53Z"/>
      <path class="cls-1" d="M1159.41,638.73l-34.08-108.08h32.67l32.06,108.08h-30.65ZM1138.04,684.91v-27.42h22.99c3.49,0,6.45-.44,8.87-1.31,2.42-.88,4.37-2.32,5.85-4.33,1.48-2.02,2.69-4.77,3.63-8.27l27.02-112.92h30.85l-30.85,119.37c-2.15,8.6-5.14,15.49-8.97,20.67-3.83,5.17-8.94,8.84-15.32,10.99-6.39,2.15-14.49,3.23-24.3,3.23h-19.76ZM1172.72,638.73v-25.21h23.39v25.21h-23.39Z"/>
    </g>
  </g>
</svg>