<?xml version="1.0" encoding="UTF-8"?>
<svg id="Layer_2" data-name="Layer 2" xmlns="http://www.w3.org/2000/svg" viewBox="0 0 397.64 398.71">
  <defs>
    <style>
      .cls-1 {
        fill: #121b32;
      }
    </style>
  </defs>
  <g id="Layer_1-2" data-name="Layer 1">
    <path class="cls-1" d="M397.64,74.05V0h-74.05v32.45H74.05V0H0v74.05h32.58v250.6H0v74.05h74.05v-32.57h249.53v32.57h74.05v-74.05h-32.47V74.05h32.47ZM323.59,41.35v26.53l-39.71,39.85h-36.45v129.09l-32.97-32.96v-31.95l-.34-.34-52.36-52.35-9.91-9.91-1.61-1.58h-36.47l-39.71-39.84v-26.53h249.53ZM41.48,74.05h26.17l39.59,39.72v171.17l-39.58,39.71h-26.18V74.05ZM74.05,357.25v-26.41l39.7-39.84h36.47v-128.71l33.32,33.33v31.54l62.27,62.26,1.61,1.58h36.44l39.72,39.85v26.4H74.05ZM356.27,324.66h-26.28l-39.58-39.71V113.76l39.57-39.7h26.29v250.6Z"/>
  </g>
</svg>