<?xml version="1.0" encoding="UTF-8"?>
<svg id="Layer_2" data-name="Layer 2" xmlns="http://www.w3.org/2000/svg" viewBox="0 0 734.57 753.26">
  <defs>
    <style>
      .cls-1 {
        fill: #121b32;
      }
    </style>
  </defs>
  <g id="Layer_1-2" data-name="Layer 1">
    <g>
      <polygon class="cls-1" points="83.07 451.56 85.75 451.56 138.33 565.71 190.14 565.71 190.14 426.13 160.7 426.13 160.7 540.28 158.02 540.28 105.44 426.13 54.01 426.13 54.01 565.71 83.07 565.71 83.07 451.56"/>
      <path class="cls-1" d="M344.63,545.34c6.12-7.2,10.71-14.98,13.77-23.33,3.06-8.35,4.59-16.47,4.59-24.38v-4.21c0-8.67-1.6-17.24-4.78-25.72-3.19-8.47-7.9-16.16-14.15-23.04-6.25-6.88-14.02-12.39-23.33-16.54-9.31-4.14-20.08-6.21-32.31-6.21s-23.17,2.07-32.41,6.21c-9.24,4.14-17.02,9.66-23.33,16.54-6.31,6.88-11.03,14.56-14.15,23.04-3.12,8.48-4.68,17.05-4.68,25.72v4.21c0,7.9,1.53,16.03,4.59,24.38,3.06,8.35,7.65,16.13,13.77,23.33,6.12,7.2,13.86,13.03,23.23,17.49,9.37,4.46,20.36,6.69,32.98,6.69s23.61-2.23,32.98-6.69c9.37-4.46,17.11-10.29,23.23-17.49ZM328.28,512.94c-1.98,5.35-4.81,10.07-8.51,14.15-3.7,4.08-8.19,7.27-13.48,9.56-5.29,2.29-11.25,3.44-17.88,3.44s-12.56-1.15-17.78-3.44c-5.23-2.29-9.72-5.48-13.48-9.56-3.76-4.08-6.6-8.79-8.51-14.15-1.91-5.35-2.87-11.09-2.87-17.21,0-6.5.96-12.46,2.87-17.88,1.91-5.42,4.75-10.1,8.51-14.05,3.76-3.95,8.25-7.01,13.48-9.18,5.23-2.17,11.15-3.25,17.78-3.25s12.39,1.08,17.69,3.25c5.29,2.17,9.81,5.23,13.57,9.18,3.76,3.95,6.63,8.64,8.6,14.05,1.97,5.42,2.96,11.38,2.96,17.88,0,6.12-.99,11.85-2.96,17.21Z"/>
      <path class="cls-1" d="M440.76,520.97l30.63,44.74h36.33l-35.65-49.98c8.28-3.38,14.72-8.41,19.3-15.13,4.65-6.82,6.98-15.39,6.98-25.72v-3.06c0-10.32-2.29-18.96-6.88-25.91-4.59-6.95-11.15-12.17-19.69-15.68-8.54-3.5-18.61-5.26-30.21-5.26h-54.87v140.72h31.36v-44.74h22.71ZM444.05,451.56c4.59,0,8.54.93,11.85,2.77,3.31,1.85,5.93,4.46,7.84,7.84,1.91,3.38,2.87,7.36,2.87,11.95,0,4.33-.96,8.19-2.87,11.57-1.91,3.38-4.53,5.99-7.84,7.84-3.32,1.85-7.27,2.77-11.85,2.77h-26v-44.74h26Z"/>
      <polygon class="cls-1" points="680.56 565.71 680.56 426.13 636.58 426.13 605.03 504.52 601.4 504.52 569.47 426.13 526.26 426.13 526.26 565.71 554.94 565.71 554.94 458.63 587.25 537.41 617.08 537.41 649.58 457.75 649.58 565.71 680.56 565.71"/>
    </g>
    <g>
      <path class="cls-1" d="M91.01,672.1c-7.78-3.5-16.76-5.7-26.96-6.6l-10.71-.96c-6.38-.51-10.96-2.23-13.77-5.16-2.81-2.93-4.21-6.31-4.21-10.13,0-3.18.76-6.09,2.29-8.7,1.53-2.61,3.85-4.65,6.98-6.12,3.12-1.46,6.98-2.2,11.57-2.2,4.84,0,8.89.86,12.14,2.58,3.25,1.72,5.7,4.01,7.36,6.88,1.66,2.87,2.49,6.02,2.49,9.46h30.59c0-9.05-2.1-16.98-6.31-23.8-4.21-6.82-10.23-12.14-18.07-15.96-7.84-3.82-17.24-5.74-28.2-5.74s-19.5,1.75-27.15,5.26c-7.65,3.51-13.61,8.51-17.88,15.01-4.27,6.5-6.41,14.28-6.41,23.33,0,12.37,4.14,22.27,12.43,29.73,8.28,7.46,19.37,11.82,33.27,13.1l10.52.76c8.54.77,14.72,2.46,18.55,5.07,3.82,2.61,5.74,6.15,5.74,10.61,0,3.57-1.02,6.72-3.06,9.46-2.04,2.74-5.04,4.88-8.99,6.4-3.95,1.53-8.86,2.29-14.72,2.29-6.5,0-11.79-.92-15.87-2.77-4.08-1.85-7.11-4.3-9.08-7.36-1.98-3.06-2.96-6.37-2.96-9.94H0c0,9.05,2.26,17.05,6.79,23.99,4.52,6.95,11.12,12.46,19.79,16.54,8.67,4.08,19.31,6.12,31.93,6.12,11.85,0,22.05-1.85,30.59-5.55,8.54-3.7,15.13-8.92,19.79-15.68,4.65-6.75,6.98-14.59,6.98-23.52s-2.2-16.03-6.6-22.08c-4.4-6.05-10.49-10.83-18.26-14.34Z"/>
      <path class="cls-1" d="M169.4,609.86l-46.08,139.57h31.36l11.07-34.61h58.27l11.35,34.61h32.5l-47.8-139.57h-50.67ZM174.06,688.83l17-53.15h7l17.43,53.15h-41.43Z"/>
      <polygon class="cls-1" points="313.56 609.86 286.03 609.86 286.03 749.44 317.38 749.44 317.38 693.4 367.48 693.23 367.48 667.22 317.38 667.22 317.38 635.87 369.77 635.87 369.77 609.86 317.38 609.86 313.56 609.86"/>
      <polygon class="cls-1" points="423.69 691.5 476.46 691.5 476.46 665.5 423.69 665.5 423.69 635.87 479.52 635.87 479.52 609.86 423.69 609.86 419.86 609.86 393.1 609.86 393.1 749.44 419.86 749.44 423.69 749.44 480.85 749.44 480.85 723.43 423.69 723.43 423.69 691.5"/>
      <polygon class="cls-1" points="495 637.4 534.39 637.4 534.39 749.44 565.74 749.44 565.74 637.4 605.13 637.4 605.13 609.86 495 609.86 495 637.4"/>
      <polygon class="cls-1" points="734.57 609.86 704.17 609.86 678.48 672.96 672.42 672.96 643.94 609.86 611.82 609.86 652.55 696.67 659.43 696.67 659.43 749.44 690.21 749.44 690.21 696.67 697.1 696.67 734.57 609.86"/>
    </g>
    <path class="cls-1" d="M559.25,71.5V0h-71.5v31.33h-240.92V0h-71.5v71.5h31.45v241.96h-31.45v71.5h71.5v-31.44h240.92v31.44h71.5v-71.5h-31.35V71.5h31.35ZM487.75,39.92v25.61l-38.34,38.47h-35.19v124.64l-31.83-31.82v-30.85l-.33-.33-50.55-50.54-9.57-9.57-1.55-1.53h-35.21l-38.34-38.47v-25.61h240.92ZM215.37,71.5h25.27l38.22,38.35v165.27l-38.22,38.34h-25.27V71.5ZM246.82,344.92v-25.5l38.33-38.46h35.21v-124.27l32.17,32.18v30.45l60.12,60.11,1.55,1.53h35.18l38.35,38.48v25.49h-240.92ZM519.3,313.46h-25.38l-38.21-38.34V109.83l38.21-38.33h25.38v241.96Z"/>
  </g>
</svg>