<?xml version="1.0" encoding="UTF-8"?>
<svg id="Layer_2" data-name="Layer 2" xmlns="http://www.w3.org/2000/svg" viewBox="0 0 1104.47 440.84">
  <defs>
    <style>
      .cls-1 {
        fill: #121b32;
      }
    </style>
  </defs>
  <g id="Layer_1-2" data-name="Layer 1">
    <path class="cls-1" d="M397.64,74.05V0h-74.05v32.45H74.05V0H0v74.05h32.58v250.6H0v74.05h74.05v-32.57h249.53v32.57h74.05v-74.05h-32.47V74.05h32.47ZM323.59,41.35v26.53l-39.71,39.85h-36.45v129.09l-32.97-32.96v-31.95l-.34-.34-52.36-52.35-9.91-9.91-1.61-1.58h-36.47l-39.71-39.84v-26.53h249.53ZM41.48,74.05h26.17l39.59,39.72v171.17l-39.58,39.71h-26.18V74.05ZM74.05,357.25v-26.41l39.7-39.84h36.47v-128.71l33.32,33.33v31.54l62.27,62.26,1.61,1.58h36.44l39.72,39.85v26.4H74.05ZM356.27,324.66h-26.28l-39.58-39.71V113.76l39.57-39.7h26.29v250.6Z"/>
    <g>
      <polygon class="cls-1" points="467.65 63.56 470.6 63.56 528.53 189.32 585.62 189.32 585.62 35.54 553.18 35.54 553.18 161.3 550.23 161.3 492.3 35.54 435.63 35.54 435.63 189.32 467.65 189.32 467.65 63.56"/>
      <path class="cls-1" d="M721.6,175.73c5.4-5.55,9.51-11.87,12.32-18.96,2.81-7.09,4.21-14.57,4.21-22.44v-4.85c0-8-1.47-15.62-4.42-22.86-2.95-7.23-7.16-13.59-12.64-19.06-5.48-5.48-12.11-9.8-19.91-12.96-7.79-3.16-16.68-4.74-26.65-4.74s-18.47,1.58-26.33,4.74c-7.87,3.16-14.57,7.48-20.12,12.96-5.55,5.48-9.8,11.83-12.74,19.06-2.95,7.23-4.42,14.85-4.42,22.86v4.85c0,7.87,1.4,15.34,4.21,22.44,2.81,7.09,6.95,13.41,12.43,18.96,5.48,5.55,12.14,9.9,20.01,13.06,7.86,3.16,16.85,4.74,26.96,4.74s19.31-1.58,27.18-4.74c7.86-3.16,14.5-7.51,19.91-13.06ZM690.95,160.67c-4.35,2.81-9.83,4.21-16.43,4.21s-11.73-1.4-16.22-4.21c-4.5-2.81-7.87-6.74-10.11-11.8-2.25-5.06-3.37-10.67-3.37-16.85,0-6.6,1.16-12.39,3.48-17.38,2.32-4.98,5.72-8.92,10.22-11.8,4.49-2.88,9.83-4.32,16.01-4.32s11.69,1.44,16.12,4.32c4.42,2.88,7.79,6.81,10.11,11.8,2.32,4.99,3.48,10.78,3.48,17.38,0,6.18-1.13,11.8-3.37,16.85-2.25,5.06-5.55,8.99-9.9,11.8Z"/>
      <path class="cls-1" d="M795.43,130.55c0-9.41,2.53-16.57,7.58-21.49,5.06-4.91,12.22-7.37,21.49-7.37h8.43v-29.28h-4.42c-13.2,0-23.28,4.42-30.23,13.27-5.24,6.67-8.51,15.51-9.8,26.5v-38.3h-26.96v115.44h33.92v-58.77Z"/>
      <path class="cls-1" d="M917.72,106.53c3.3,3.93,4.95,8.99,4.95,15.17v67.62h33.92v-66.99c0-6.46,1.75-11.69,5.27-15.69,3.51-4,8.28-6,14.32-6s10.67,1.97,13.9,5.9c3.23,3.93,4.85,8.99,4.85,15.17v67.62h33.92v-65.72c0-11.8-1.55-21.63-4.63-29.49-3.09-7.86-7.62-13.8-13.59-17.8-5.97-4-13.31-6-22.01-6h-1.47c-8.57,0-15.8,2-21.7,6-5.9,4-10.36,9.94-13.38,17.8-.15.39-.28.81-.42,1.21-.14-.4-.27-.82-.42-1.21-3.02-7.86-7.45-13.8-13.27-17.8-5.83-4-13.1-6-21.8-6h-1.48c-8.57,0-15.8,2-21.7,6-5.9,4-10.32,9.94-13.27,17.8-1.02,2.73-1.86,5.72-2.53,8.93v-29.15h-26.96v115.44h33.92v-66.99c0-6.46,1.75-11.69,5.27-15.69,3.51-4,8.35-6,14.54-6s10.5,1.97,13.8,5.9Z"/>
      <path class="cls-1" d="M524.95,309.92c-8.57-3.86-18.47-6.28-29.7-7.27l-11.8-1.05c-7.02-.56-12.08-2.46-15.17-5.69-3.09-3.23-4.63-6.95-4.63-11.17,0-3.51.84-6.7,2.53-9.58,1.69-2.88,4.25-5.12,7.69-6.74,3.44-1.61,7.69-2.42,12.74-2.42,5.34,0,9.8.95,13.38,2.84,3.58,1.9,6.28,4.42,8.11,7.58,1.82,3.16,2.74,6.64,2.74,10.43h33.71c0-9.97-2.32-18.71-6.95-26.23-4.63-7.51-11.27-13.38-19.91-17.59-8.64-4.21-19-6.32-31.07-6.32s-21.49,1.93-29.91,5.79c-8.43,3.86-14.99,9.37-19.7,16.54-4.71,7.16-7.06,15.73-7.06,25.7,0,13.62,4.56,24.54,13.69,32.76,9.13,8.22,21.35,13.03,36.65,14.43l11.59.84c9.41.84,16.22,2.71,20.43,5.58,4.21,2.88,6.32,6.78,6.32,11.69,0,3.93-1.13,7.41-3.37,10.43-2.25,3.02-5.55,5.37-9.9,7.06-4.35,1.69-9.76,2.53-16.22,2.53-7.16,0-12.99-1.02-17.48-3.05-4.5-2.03-7.83-4.74-10.01-8.11-2.18-3.37-3.26-7.02-3.26-10.95h-33.71c0,9.97,2.49,18.78,7.48,26.44,4.98,7.66,12.25,13.73,21.8,18.22,9.55,4.49,21.28,6.74,35.18,6.74,13.06,0,24.3-2.04,33.7-6.11,9.41-4.07,16.67-9.83,21.8-17.27,5.12-7.44,7.69-16.08,7.69-25.91s-2.42-17.66-7.27-24.33c-4.85-6.67-11.55-11.93-20.12-15.8Z"/>
      <path class="cls-1" d="M645.76,282.85c-8.08-3.37-18.01-5.06-29.81-5.06-4.07,0-8.43.07-13.06.21-4.63.14-9.13.35-13.48.63-4.36.28-8.22.56-11.59.84v28.44c4.35-.28,9.23-.53,14.64-.74,5.4-.21,10.64-.39,15.69-.53,5.06-.14,9.13-.21,12.22-.21,6.18,0,10.67,1.44,13.48,4.32,2.81,2.88,4.21,7.34,4.21,13.38v.21h-20.85c-10.25,0-19.31,1.3-27.18,3.9-7.87,2.6-13.98,6.6-18.33,12.01-4.36,5.41-6.53,12.32-6.53,20.75,0,7.72,1.75,14.36,5.27,19.91,3.51,5.55,8.39,9.8,14.64,12.74,6.25,2.95,13.52,4.42,21.8,4.42s14.78-1.47,20.33-4.42c5.55-2.95,9.9-7.16,13.06-12.64,1.41-2.44,2.56-5.14,3.48-8.09v22.2h26.75v-70.78c0-10.67-2.11-19.41-6.32-26.23-4.21-6.81-10.36-11.9-18.43-15.27ZM627.22,372.7c-3.02,1.34-6.42,2-10.22,2-5.9,0-10.43-1.44-13.59-4.32-3.16-2.88-4.74-6.64-4.74-11.27,0-4.91,1.58-8.81,4.74-11.69,3.16-2.88,7.69-4.32,13.59-4.32h21.07v9.27c-.28,5.76-1.41,10.25-3.37,13.48-1.97,3.23-4.46,5.51-7.48,6.85Z"/>
      <path class="cls-1" d="M733.08,276.53c0-3.79,1.05-6.7,3.16-8.74,2.11-2.03,5.06-3.05,8.85-3.05h16.22v-25.49h-14.75c-14.89,0-26.09,3.23-33.6,9.69-7.51,6.46-11.27,16.36-11.27,29.7v3.37h-13.69v24.65h13.69v88.48h31.39v-88.48h29.91v-24.65h-29.91v-5.48Z"/>
      <path class="cls-1" d="M862.11,284.01c-8.5-5.55-18.93-8.32-31.28-8.32-9.41,0-17.8,1.65-25.17,4.95-7.37,3.3-13.55,7.76-18.54,13.38-4.99,5.62-8.78,11.97-11.38,19.06-2.6,7.09-3.9,14.5-3.9,22.22v4.21c0,7.45,1.3,14.71,3.9,21.8,2.6,7.09,6.42,13.52,11.48,19.27,5.06,5.76,11.34,10.32,18.85,13.69,7.51,3.37,16.18,5.06,26.02,5.06s18.26-1.72,25.7-5.16c7.44-3.44,13.62-8.18,18.54-14.22,4.91-6.04,8.21-12.92,9.9-20.64h-30.97c-1.41,3.51-4.07,6.46-8,8.85-3.93,2.39-8.99,3.58-15.17,3.58-6.74,0-12.22-1.4-16.43-4.21-4.21-2.81-7.3-6.77-9.27-11.9-1.09-2.85-1.87-5.98-2.36-9.37h84.3v-11.38c0-10.53-2.25-20.26-6.74-29.18-4.5-8.92-10.99-16.15-19.49-21.7ZM806.6,318.77c2.11-5.12,5.19-8.99,9.27-11.59,4.07-2.6,9.06-3.9,14.96-3.9s10.57,1.3,14.43,3.9c3.86,2.6,6.74,6.32,8.64,11.17,1.02,2.6,1.75,5.52,2.22,8.74h-51.84c.53-3.05,1.3-5.82,2.32-8.32Z"/>
      <path class="cls-1" d="M945.63,248.52h-31.39l-.06,31.18h-17.63v24.86h17.58l-.09,45.5c0,11.66,1.69,20.89,5.06,27.7,3.37,6.81,8.64,11.69,15.8,14.64,7.16,2.95,16.57,4.42,28.23,4.42h16.22v-28.65h-17.06c-5.34,0-9.45-1.44-12.32-4.32-2.88-2.88-4.32-7.06-4.32-12.53v-46.77h33.7v-24.86h-33.7v-31.18Z"/>
      <path class="cls-1" d="M1072.24,279.69l-20.72,86.58h-4.16l-25.68-86.58h-34.13l35.6,112.91h22.07l-1.21,5.06c-.98,3.65-2.25,6.53-3.79,8.64-1.55,2.11-3.58,3.61-6.11,4.53-2.53.91-5.62,1.37-9.27,1.37h-24.01v28.65h20.64c10.25,0,18.71-1.13,25.38-3.37,6.67-2.25,12.01-6.08,16.01-11.48,4-5.41,7.13-12.61,9.37-21.59l32.23-124.71h-32.23Z"/>
    </g>
  </g>
</svg>