<?xml version="1.0" encoding="UTF-8"?>
<svg xmlns="http://www.w3.org/2000/svg" viewBox="0 0 1180.44 377.17">
  <g>
    <path fill="#4ab749" d="M1178.34,161.32c-6.78-33.08-29.63-59.23-62.01-69.32-29.63-9.24-61.86-4.85-87.75,12.46-25.46,17.02-40.55,45.16-41.96,75.49-1.52,32.61,13.5,60.53,41.1,78.21-3.1-.89-7.53-2.37-12.57-4.76-18.78-8.92-29.46-22.72-38.63-34.86-5.71-7.56-12.98-18.48-19.51-32.85l-22.2-41.22c-11.97-19.03-27.37-34.79-47.67-44.89-27.53-13.69-59.17-15.71-88.35-6.2-39.5,12.87-66.59,48.42-68.32,89.94.02,35.17.03,67.11.06,102.27h43.31c.07-34.47.13-65.72.2-100.19,1.71-21.75,14.54-39.97,34.22-49.22,23.92-11.24,51.71-7.17,72.13,9.73,9.64,7.98,17.13,17.69,23.21,28.71l21.06,38.18c7.5,14.56,15.96,25.2,22.42,32.26,6.27,6.85,18.32,19.8,38.11,29.68,4.65,2.32,13.41,6.3,26.39,9.5,45.76,11.28,110.27,6.64,146.75-24.11,7.28-6.14,12.62-13.93,17.75-22.1l-35.47-21.39c-12.26,20.94-33.61,31.56-57.14,30.28-27.31-1.48-49.35-20.68-53.62-47.22l150.23.02c.52-13.11.9-25.64-1.72-38.42ZM1029.71,168.15c5.16-27.92,29.52-46.58,57.94-45.21,25.5,1.23,46.41,18.91,49.75,45.14l-107.69.07Z"/>
    <path fill="#4ab749" d="M179.14,270.09c-37.7,26.9-97.33,23.89-138.68,4.36-16.14-8.1-29.67-18.92-40.47-33.26l29.67-31.08c23.8,28.04,59.26,41.72,95.22,37.37,8.78-1.53,16.48-3.96,23.61-9.19,13.26-9.73,18.19-27.83,10.19-42.51-14.94-27.41-83.1-27.26-123.77-60.75-17.12-14.09-26.26-34.5-25.93-56.73.26-17.89,5.83-34.65,17.95-47.82C57.42-2.64,113.96-6.89,155.17,8.71c19.71,7.56,36.41,19.53,49.73,36.14l-32.62,29.12c-17.71-19.98-41.61-31.15-67.69-31.49-23.14-.17-46.32,10.29-47.67,33.46-1.49,25.58,24.16,35.43,47.27,43.34l43.62,14.93c14.08,4.82,26.77,11.95,37.86,21.6,16.39,14.27,24.77,33.76,24.21,55.45-.62,23.85-11.24,44.92-30.74,58.83Z"/>
    <path fill="#4ab749" d="M227.56,225.86c.58-22.03,12.57-40.09,32.35-48.85,11.27-4.99,23.3-8.32,36.03-8.33l67.6-.05c.79-20.34-12.38-37.58-32.52-41.16-14.56-3.49-29.27-1.99-43.42,2.78-9.73,4-17.85,10.03-25.15,18.28l-26.27-26.13c10.48-13.97,23.81-22.86,39.9-28.56,38.41-12.13,92.37-7.89,116,26.7,8.64,12.65,13.65,27.41,13.69,43.13l.37,121.91c-14.2,0-28.4,0-42.6,0v-24.09c-32.75,25.65-70.78,35.06-97.75,22.82-17.64-8.01-27.43-22.22-27.43-22.22-3.76-5.46-11.27-18.47-10.8-36.24ZM334.03,248.1c4.19-1.74,10.66-4.94,16.82-11.61,12.83-13.9,12.87-31.42,12.7-36.43-19.54.01-39.07.02-58.61.03-6.81,0-13.64,1.7-19.66,4.06-9.35,4.73-14.68,12.79-14.47,22.65.21,9.67,5.76,17.38,15.35,21.95,14.97,5.95,32.14,5.89,47.87-.65Z"/>
    <path fill="#4ab749" d="M700.23,285.6c-14.51,0-29.03,0-43.54,0,.03-65.68.06-132.39.09-198.08h43.6c-.05,65.68-.1,132.4-.15,198.08Z"/>
    <path fill="#489bb5" d="M658.34,77.75c7.04-3.59,13.5-6.7,19.6-11.11,3.64-2.76,6.97-5.67,9.54-9.29,1.42-2.19,1.84-4.53,1.32-6.65-.19-.75-.79-2.71-3.52-4.82-6.95-5.37-27.8-11.89-29.57-12.44-11.33-4.34-16.28-17.33-14.84-29.65,8.98,7.71,17.11,12.23,22.74,14.9,12.03,5.7,27.46,9.96,36.61,19.58,1.54,1.62,3.59,4.15,4.53,7.78,1.08,4.15.51,8.67-1.78,12.75-7.47,13.29-29.07,20.22-44.62,18.96Z"/>
    <path fill="#489bb5" d="M681.2,47.6c.31.1,3.47,1.14,4.25,4.05.26.98.17,1.86.04,2.46l-19.33-2.5c-7.78-1.01-13.53-6.85-14.28-14.89,9.78,3.63,19.55,7.26,29.33,10.88Z"/>
    <path fill="#489bb5" d="M703.24,25.15c-1.54,2.47-2.42,5.24-3.05,8.36-3.89-3.33-7.85-5.76-12.45-7.61,4.85-9.48,13.9-14.34,23.17-9,1.32.76,3.2.87,4.55,2.39-5.09-.11-9.33,1.73-12.22,5.87Z"/>
    <g>
      <path fill="#4ab749" d="M361,356.38l-143.02.02c-.77-1.99-.92-4.45-.71-7.29l143.53-.06.19,7.33Z"/>
      <path fill="#4ab749" d="M960.54,356.38l-143.43.03c-.37-2.39-.42-4.68-.14-7.32l143.58-.03v7.32Z"/>
      <g>
        <path fill="#4ab749" d="M669.08,377.17l-10.12-15.26-9.3-.14.29,15.27-10.57-.05.11-47.34,24.38.23c7.87.07,14.2,5.56,15.15,11.97,1.16,7.8-1.65,14.82-9.8,18.07l11.19,17.04-11.34.21ZM662.71,352.61c3.11-.02,6.17-3.86,6.36-6.26.23-2.88-1.83-7.29-5-7.37l-14.4-.33.08,14.05,12.95-.09Z"/>
        <path fill="#4ab749" d="M543.51,335.98c7.23,7.76,8.33,18.37,4.08,27.52-3.82,8.23-12.82,13.55-22.83,13.67-14.38.17-25.42-10.19-25.78-23.62-.38-13.88,10.07-24.97,24.61-25.26,7.26-.14,14.61,1.99,19.92,7.69ZM517.44,366.53c7.7,3.85,16.25.74,20.11-5.76,3.62-6.11,2.73-14.33-2.69-19.51-4.96-4.74-13.42-5.68-19.63-1.06-4.53,3.37-6.09,8.84-5.73,14.53.27,4.16,2.93,9.31,7.93,11.81Z"/>
        <path fill="#4ab749" d="M605.62,329.26l10.18-.27-.36,32.08c-.13,11.2-11.6,16.33-21.51,16.09-11.67-.28-20.38-7.57-20.28-19.51l.25-28.65,10.3.2.26,30.77c.05,5.35,5.9,7.86,9.9,8.07,4.29.23,11.02-2.26,11.06-7.75l.2-31.04Z"/>
        <path fill="#4ab749" d="M733.61,375.31c-10.32,3.83-21.26,1.57-29.63-5.22l6-7.65c5.17,5.48,13.65,7.24,19.38,4.88,1.35-.56,3.16-3.33,3-4.51-.2-1.37-2.63-3.55-3.98-4.01l-17.29-5.87c-4.95-1.68-5.81-8.07-4.97-12.89.72-4.15,4.1-8.8,9.08-10.3,9.11-2.76,18.52-1.17,25.68,4.26l-5.3,7.64c-8.16-6.27-18.53-5.89-19.59-.41-.27,1.38,1.71,4.35,3.15,4.79l13.2,3.94c6.14,1.83,9.74,6.29,9.89,11.8.16,5.61-2.24,11.2-8.61,13.57Z"/>
        <polygon fill="#4ab749" points="460.37 377.07 450.37 377.17 450.38 338.98 435.56 338.83 435.67 330.02 475.37 329.89 475.4 338.98 460.35 338.96 460.37 377.07"/>
      </g>
    </g>
    <path fill="#4ab749" d="M628.32,12.93h-43.55l.04,99.85c-37.1-36.14-95.92-31.76-131.53,2.51-22.23,21.4-33.23,51.75-29.83,83.25,3.81,35.32,24.21,66.6,57.33,81.62,33.55,15.22,72.54,11.86,103.04-7.21.66-.41,1.3-.83,1.95-1.26v13.92c14.16,0,28.33-.01,42.49-.02v-96.35l.06-176.31ZM579.84,214.89c-9.89,20.91-29.69,33.43-51.67,34.21-22,.79-42.55-10.46-53.65-30.28-9.68-17.28-10.9-37.98-2.94-56.15,10.23-23.35,33.04-37.23,58.06-35.91,24.2,1.27,45.59,17.24,53.38,41.24,4.97,15.31,3.96,31.8-3.17,46.89Z"/>
  </g>
</svg>
