<?xml version="1.0" encoding="UTF-8"?>
<svg id="Layer_2" data-name="Layer 2" xmlns="http://www.w3.org/2000/svg" viewBox="0 0 1194.87 391.01">
  <defs>
    <style>
      .cls-1 { fill: #f4b942; }
      .cls-2 { fill: #f7f5fa; }
    </style>
  </defs>
  <g id="Layer_1-2" data-name="Layer 1">
    <path class="cls-2" d="M1190.5,251.88c-5.14,8.18-10.47,15.97-17.75,22.1-36.47,30.74-100.99,35.39-146.75,24.11-42.03-10.36-72.24-38.46-92.79-75.71l-21.06-38.18c-6.08-11.02-13.56-20.73-23.21-28.71-20.42-16.9-48.21-20.97-72.13-9.73-19.68,9.25-32.51,27.47-34.22,49.22-.07,34.47-.13,68.94-.2,103.42h-43.3c-.02-35.17-.04-70.33-.07-105.5,1.73-41.53,28.83-77.08,68.32-89.94,29.18-9.51,60.83-7.49,88.35,6.2,20.3,10.09,35.7,25.86,47.67,44.89l22.2,41.22c17.49,33.7,38.33,65.25,76.59,76.74-27.6-17.67-42.62-45.6-41.1-78.21,1.42-30.33,16.5-58.46,41.96-75.49,25.89-17.31,58.12-21.69,87.75-12.46,32.38,10.09,55.23,36.24,62.01,69.32,2.62,12.78,2.24,25.32,1.72,38.42l-150.23-.02c4.27,26.54,26.32,45.74,53.62,47.22,23.53,1.28,44.88-9.35,57.14-30.28l35.47,21.39ZM1151.84,181.92c-3.34-26.23-24.25-43.91-49.75-45.14-28.42-1.38-52.78,17.29-57.94,45.21l107.69-.07Z"/>
    <path class="cls-2" d="M187.7,282.99c-39.5,28.19-101.98,25.03-145.3,4.56-16.91-8.49-31.09-19.82-42.4-34.85l31.08-32.56c24.94,29.38,62.09,43.72,99.77,39.16,9.19-1.6,17.26-4.15,24.74-9.63,13.89-10.19,19.06-29.16,10.67-44.54-15.66-28.72-87.07-28.56-129.69-63.65-17.93-14.77-27.51-36.14-27.17-59.44.28-18.75,6.11-36.31,18.81-50.11C60.16-2.76,119.41-7.22,162.59,9.13c20.66,7.93,38.15,20.46,52.1,37.86l-34.18,30.51c-18.56-20.93-43.6-32.64-70.93-32.99-24.25-.18-48.54,10.78-49.95,35.06-1.56,26.8,25.32,37.12,49.53,45.41l45.7,15.64c14.75,5.05,28.05,12.52,39.67,22.64,17.17,14.95,25.96,35.37,25.37,58.09-.65,24.99-11.78,47.07-32.21,61.64Z"/>
    <path class="cls-2" d="M489.35,294c-33.12-15.02-53.52-46.3-57.33-81.62-3.4-31.51,7.59-61.86,29.83-83.25,35.61-34.27,94.43-38.65,131.53-2.51l-.04-82.94,43.55.02-.06,166.4c-1.88,32-17.28,59.72-44.44,76.7-30.5,19.06-69.49,22.42-103.04,7.21ZM588.41,228.73c7.14-15.09,8.14-31.58,3.17-46.89-7.79-24-29.18-39.97-53.38-41.24-25.02-1.31-47.83,12.56-58.06,35.91-7.96,18.17-6.74,38.87,2.94,56.15,11.1,19.81,31.65,31.06,53.65,30.28,21.99-.79,41.78-13.3,51.67-34.21Z"/>
    <path class="cls-2" d="M236.13,240.66c.58-22.19,12.57-40.37,32.35-49.19,11.27-5.02,23.3-8.38,36.03-8.39l67.6-.05c.79-20.48-12.38-37.85-32.52-41.44-14.56-3.51-29.27-2.01-43.42,2.8-9.73,4.03-17.85,10.09-25.15,18.41l-26.27-26.31c10.48-14.06,23.81-23.02,39.9-28.75,38.41-12.22,92.37-7.95,116,26.89,8.64,12.74,13.65,27.6,13.69,43.43l.37,121.39c-14.2,0-28.4.01-42.6.02v-22.9c-32.75,25.83-70.78,35.31-97.75,22.98-17.64-8.06-27.43-22.38-27.43-22.38-3.76-5.5-11.27-18.6-10.8-36.49ZM342.6,263.05c4.19-1.75,10.66-4.98,16.82-11.69,12.83-14,12.87-31.64,12.7-36.68-19.54.01-39.07.02-58.61.03-6.81,0-13.64,1.71-19.66,4.09-9.35,4.76-14.68,12.88-14.47,22.81.21,9.73,5.76,17.5,15.35,22.1,14.97,5.99,32.14,5.93,47.87-.66Z"/>
    <path class="cls-2" d="M708.8,298.39c-14.51,0-29.03.01-43.54.02.03-65.68.06-131.37.09-197.05h43.6c-.05,65.68-.1,131.35-.15,197.03Z"/>
    <path class="cls-1" d="M666.91,91.59c7.04-3.59,13.5-6.7,19.6-11.11,3.64-2.76,6.97-5.67,9.54-9.29,1.42-2.19,1.84-4.53,1.32-6.65-.19-.75-.79-2.71-3.52-4.82-6.95-5.37-27.8-11.89-29.57-12.44-11.33-4.34-16.28-17.33-14.84-29.65,8.98,7.71,17.11,12.23,22.74,14.9,12.03,5.7,27.46,9.96,36.61,19.58,1.54,1.62,3.59,4.15,4.53,7.78,1.08,4.15.51,8.67-1.78,12.75-7.47,13.29-29.07,20.22-44.62,18.96Z"/>
    <path class="cls-1" d="M689.77,61.44c.31.1,3.47,1.14,4.25,4.05.26.98.17,1.86.04,2.46l-19.33-2.5c-7.78-1.01-13.53-6.85-14.28-14.89,9.78,3.63,19.55,7.26,29.33,10.88Z"/>
    <path class="cls-1" d="M711.81,38.99c-1.54,2.47-2.42,5.24-3.05,8.36-3.89-3.33-7.85-5.76-12.45-7.61,4.85-9.48,13.9-14.34,23.17-9,1.32.76,3.2.87,4.55,2.39-5.09-.11-9.33,1.73-12.22,5.87Z"/>
    <g>
      <path class="cls-2" d="M369.57,370.22l-143.02.02c-.77-1.99-.92-4.45-.71-7.29l143.53-.06.19,7.33Z"/>
      <path class="cls-2" d="M969.11,370.22l-143.43.03c-.37-2.39-.42-4.68-.14-7.32l143.58-.03v7.32Z"/>
      <g>
        <path class="cls-2" d="M677.65,391.01l-10.12-15.26-9.3-.14.29,15.27-10.57-.05.11-47.34,24.38.23c7.87.07,14.2,5.56,15.15,11.97,1.16,7.8-1.65,14.82-9.8,18.07l11.19,17.04-11.34.21ZM671.28,366.45c3.11-.02,6.17-3.86,6.36-6.26.23-2.88-1.83-7.29-5-7.37l-14.4-.33.08,14.05,12.95-.09Z"/>
        <path class="cls-2" d="M552.08,349.82c7.23,7.76,8.33,18.37,4.08,27.52-3.82,8.23-12.82,13.55-22.83,13.67-14.38.17-25.42-10.19-25.78-23.62-.38-13.88,10.07-24.97,24.61-25.26,7.26-.14,14.61,1.99,19.92,7.69ZM526.01,380.37c7.7,3.85,16.25.74,20.11-5.76,3.62-6.11,2.73-14.33-2.69-19.51-4.96-4.74-13.42-5.68-19.63-1.06-4.53,3.37-6.09,8.84-5.73,14.53.27,4.16,2.93,9.31,7.93,11.81Z"/>
        <path class="cls-2" d="M614.19,343.1l10.18-.27-.36,32.08c-.13,11.2-11.6,16.33-21.51,16.09-11.67-.28-20.38-7.57-20.28-19.51l.25-28.65,10.3.2.26,30.77c.05,5.35,5.9,7.86,9.9,8.07,4.29.23,11.02-2.26,11.06-7.75l.2-31.04Z"/>
        <path class="cls-2" d="M742.18,389.15c-10.32,3.83-21.26,1.57-29.63-5.22l6-7.65c5.17,5.48,13.65,7.24,19.38,4.88,1.35-.56,3.16-3.33,3-4.51-.2-1.37-2.63-3.55-3.98-4.01l-17.29-5.87c-4.95-1.68-5.81-8.07-4.97-12.89.72-4.15,4.1-8.8,9.08-10.3,9.11-2.76,18.52-1.17,25.68,4.26l-5.3,7.64c-8.16-6.27-18.53-5.89-19.59-.41-.27,1.38,1.71,4.35,3.15,4.79l13.2,3.94c6.14,1.83,9.74,6.29,9.89,11.8.16,5.61-2.24,11.2-8.61,13.57Z"/>
        <polygon class="cls-2" points="468.94 390.91 458.94 391.01 458.95 352.82 444.13 352.67 444.24 343.86 483.94 343.74 483.97 352.82 468.92 352.8 468.94 390.91"/>
      </g>
    </g>
  </g>
</svg>
