<?xml version="1.0" encoding="UTF-8"?>
<svg xmlns="http://www.w3.org/2000/svg" viewBox="0 0 74.83 74.1">
  <g>
    <path fill="#f4b942" d="M17.72,73.96c7.04-3.59,13.5-6.7,19.6-11.11,3.64-2.76,6.97-5.67,9.54-9.29,1.42-2.19,1.84-4.53,1.32-6.65-.19-.75-.79-2.71-3.52-4.82-6.95-5.37-27.8-11.89-29.57-12.44C3.75,25.31-1.2,12.32.24,0c8.98,7.71,17.11,12.23,22.74,14.9,12.03,5.7,27.46,9.96,36.61,19.58,1.54,1.62,3.59,4.15,4.53,7.78,1.08,4.15.51,8.67-1.78,12.75-7.47,13.29-29.07,20.22-44.62,18.96Z"/>
    <path fill="#f4b942" d="M40.57,43.81c.31.1,3.47,1.14,4.25,4.05.26.98.17,1.86.04,2.46l-19.33-2.5c-7.78-1.01-13.53-6.85-14.28-14.89,9.78,3.63,19.55,7.26,29.33,10.88Z"/>
    <path fill="#f4b942" d="M62.61,21.36c-1.54,2.47-2.42,5.24-3.05,8.36-3.89-3.33-7.85-5.76-12.45-7.61,4.85-9.48,13.9-14.34,23.17-9,1.32.76,3.2.87,4.55,2.39-5.09-.11-9.33,1.73-12.22,5.87Z"/>
  </g>
</svg>
